<svg width="64" height="64" viewBox="0 0 64 64" fill="none" xmlns="http://www.w3.org/2000/svg">
<path d="M42.6626 26.6641C42.6626 29.4928 41.5389 32.2057 39.5387 34.2059C37.5385 36.2061 34.8256 37.3298 31.9969 37.3298C29.1682 37.3298 26.4554 36.2061 24.4552 34.2059C22.455 32.2057 21.3313 29.4928 21.3313 26.6641" stroke="#030712" stroke-width="5.33282" stroke-linecap="round" stroke-linejoin="round"/>
<path d="M8.27393 16.0891H55.72" stroke="#030712" stroke-width="5.33282" stroke-linecap="round" stroke-linejoin="round"/>
<path d="M9.06583 14.5773C8.37351 15.5004 7.99927 16.6231 7.99927 17.777V53.3282C7.99927 54.7425 8.56112 56.099 9.56121 57.0991C10.5613 58.0992 11.9177 58.661 13.3321 58.661H50.6618C52.0762 58.661 53.4326 58.0992 54.4327 57.0991C55.4328 56.099 55.9946 54.7425 55.9946 53.3282V17.777C55.9946 16.6231 55.6204 15.5004 54.9281 14.5773L49.5953 7.46595C49.0985 6.80364 48.4544 6.26607 47.7139 5.89583C46.9734 5.52558 46.1569 5.33282 45.329 5.33282H18.6649C17.837 5.33282 17.0205 5.52558 16.28 5.89583C15.5395 6.26607 14.8954 6.80364 14.3987 7.46595L9.06583 14.5773Z" stroke="#030712" stroke-width="5.33282" stroke-linecap="round" stroke-linejoin="round"/>
</svg>
