<svg width="64" height="64" viewBox="0 0 64 64" fill="none" xmlns="http://www.w3.org/2000/svg">
<path d="M29.3305 57.941C30.1412 58.4091 31.0608 58.6555 31.997 58.6555C32.9331 58.6555 33.8527 58.4091 34.6634 57.941L53.3282 47.2754C54.1381 46.8078 54.8108 46.1355 55.2788 45.3258C55.7468 44.5162 55.9937 43.5977 55.9946 42.6625V21.3312C55.9937 20.3961 55.7468 19.4776 55.2788 18.6679C54.8108 17.8583 54.1381 17.1859 53.3282 16.7184L34.6634 6.05272C33.8527 5.58467 32.9331 5.33826 31.997 5.33826C31.0608 5.33826 30.1412 5.58467 29.3305 6.05272L10.6657 16.7184C9.85579 17.1859 9.1831 17.8583 8.7151 18.6679C8.24709 19.4776 8.00023 20.3961 7.99927 21.3312V42.6625C8.00023 43.5977 8.24709 44.5162 8.7151 45.3258C9.1831 46.1355 9.85579 46.8078 10.6657 47.2754L29.3305 57.941Z" stroke="#030712" stroke-width="5.33282" stroke-linecap="round" stroke-linejoin="round"/>
<path d="M31.9969 58.661V31.9969" stroke="#030712" stroke-width="5.33282" stroke-linecap="round" stroke-linejoin="round"/>
<path d="M8.77246 18.6649L31.9969 31.9969L55.2213 18.6649" stroke="#030712" stroke-width="5.33282" stroke-linecap="round" stroke-linejoin="round"/>
<path d="M19.998 11.3856L43.9957 25.1176" stroke="#030712" stroke-width="5.33282" stroke-linecap="round" stroke-linejoin="round"/>
</svg>
