<svg width="170" height="168" viewBox="0 0 170 168" fill="none" xmlns="http://www.w3.org/2000/svg">
<path d="M52.961 62.3122L49.8318 65.8586L66.1036 86.5113L32.5169 98.1937C32.5169 98.1937 49.2074 100.433 59.8452 99.4454C70.2545 98.4788 85.9219 93.3956 85.9219 93.3956L136.198 77.9582C136.198 77.9582 142.963 73.2633 141.413 69.8223C140.016 66.7203 133.068 67.3189 133.068 67.3189L93.8492 78.584L52.961 62.3122Z" fill="black"/>
<path d="M36.2719 93.8128C33.6073 94.8664 29.179 95.6903 29.179 95.6903L22.5034 87.763C22.5034 87.763 24.3189 86.607 25.6326 86.3027C27.0612 85.9718 29.3877 86.3027 29.3877 86.3027L41.9045 90.8922C41.9045 90.8922 38.5761 92.9017 36.2719 93.8128Z" fill="black"/>
</svg>
