<svg width="16" height="16" viewBox="0 0 16 16" fill="none" xmlns="http://www.w3.org/2000/svg">
<path d="M12 7.33331C12 5.44769 12 4.50489 11.4142 3.9191C10.8284 3.33331 9.88562 3.33331 8 3.33331H6C4.11438 3.33331 3.17157 3.33331 2.58579 3.9191C2 4.50489 2 5.44769 2 7.33331V10.6666C2 12.5523 2 13.4951 2.58579 14.0809C3.17157 14.6666 4.11438 14.6666 6 14.6666H8C9.88562 14.6666 10.8284 14.6666 11.4142 14.0809C12 13.4951 12 12.5523 12 10.6666V7.33331Z" stroke="#6A7282"/>
<path d="M12 12.6666C13.1046 12.6666 14 11.7712 14 10.6666V6.66665C14 4.15249 14 2.89541 13.219 2.11436C12.4379 1.33331 11.1808 1.33331 8.66667 1.33331H6C4.89543 1.33331 4 2.22874 4 3.33331" stroke="#6A7282"/>
</svg>
